<svg width="24" height="24" viewBox="0 0 24 24" fill="none" xmlns="http://www.w3.org/2000/svg">
  <path d="M2 20h2c.4-2.5.8-5 1.5-7.4C6.3 10.5 7.6 9 9.5 9c2 0 3.2 1.5 4 3.6.7 2.4 1 4.9 1.5 7.4h2c-.4-2.5-.8-5-1.5-7.4-.8-2.1-2-3.6-4-3.6-2 0-3.2 1.5-4 3.6C6.8 15 6.4 17.5 6 20H2z" fill="currentColor"/>
  <path d="M12 4.4L9.5 2 12 4.4 14.5 2 12 4.4z" fill="currentColor"/>
  <path d="M20 9c-1.9 0-3.2 1.5-4 3.6-.7 2.4-1.1 4.9-1.5 7.4h2c.5-2.5.8-5 1.5-7.4.8-2.1 2-3.6 4-3.6v-2c-.7 0-1.3.3-2 .6z" fill="currentColor"/>
</svg>
